<mxfile host="app.diagrams.net" modified="2021-12-10T22:42:35.945Z" agent="5.0 (Windows NT 10.0; Win64; x64) AppleWebKit/537.36 (KHTML, like Gecko) Chrome/96.0.4664.93 Safari/537.36" etag="OjfKYQdrj_d8Lkp7csGA" version="15.9.4" type="github">
  <diagram id="WSqPah8oHL4bBB65SHDv" name="Page-1">
    <mxGraphModel dx="1768" dy="1302" grid="1" gridSize="10" guides="1" tooltips="1" connect="1" arrows="1" fold="1" page="1" pageScale="1" pageWidth="850" pageHeight="1100" math="0" shadow="0">
      <root>
        <mxCell id="0" />
        <mxCell id="1" parent="0" />
        <mxCell id="8Ab2OnzCb-ZzOAsppO8D-1" value="&lt;b style=&quot;font-weight: normal&quot; id=&quot;docs-internal-guid-b42f7797-7fff-c901-5522-105886eeacf5&quot;&gt;&lt;img width=&quot;887px;&quot; height=&quot;448px;&quot; src=&quot;https://lh4.googleusercontent.com/kto-cj0iAVnPeSbjV3yhCvpzpWynlzG056eCCLgD2qz1ZJBS2J_78u9Ibu3k_19Kbo4itKF-av3B9IJ8l_FgNOzgAQGr8pDOV-XUJqEUi6s1OcfxhFgkBVVLRkXAbakOwW-QwFlnFqP4&quot;&gt;&lt;/b&gt;" style="text;whiteSpace=wrap;html=1;" vertex="1" parent="1">
          <mxGeometry x="-240" y="160" width="550" height="470" as="geometry" />
        </mxCell>
      </root>
    </mxGraphModel>
  </diagram>
</mxfile>
